<svg version="1.1" viewBox="0.0 0.0 600.0 600.0" fill="none" stroke="none" stroke-linecap="square" stroke-miterlimit="10" xmlns:xlink="http://www.w3.org/1999/xlink" xmlns="http://www.w3.org/2000/svg"><clipPath id="p.0"><path d="m0 0l600.0 0l0 600.0l-600.0 0l0 -600.0z" clip-rule="nonzero"/></clipPath><g clip-path="url(#p.0)"><path fill="#000000" fill-opacity="0.0" d="m0 0l600.0 0l0 600.0l-600.0 0z" fill-rule="evenodd"/><path fill="#000000" fill-opacity="0.0" d="m240.4903 404.37057l0 0c132.81796 78.27655 267.13254 95.01477 300.0 37.385803l0 0c15.783508 -27.674377 5.583496 -69.1478 -28.35614 -115.29651c-33.939667 -46.148712 -88.838806 -93.19249 -152.62024 -130.78223l0 0c-132.81796 -78.27657 -267.13254 -95.01478 -300.0 -37.38582l0 0c-32.867466 57.628952 48.158417 167.80217 180.97638 246.07875z" fill-rule="evenodd"/><path stroke="#860485" stroke-width="24.0" stroke-linejoin="round" stroke-linecap="butt" d="m240.4903 404.37057l0 0c132.81796 78.27655 267.13254 95.01477 300.0 37.385803l0 0c15.783508 -27.674377 5.583496 -69.1478 -28.35614 -115.29651c-33.939667 -46.148712 -88.838806 -93.19249 -152.62024 -130.78223l0 0c-132.81796 -78.27657 -267.13254 -95.01478 -300.0 -37.38582l0 0c-32.867466 57.628952 48.158417 167.80217 180.97638 246.07875z" fill-rule="evenodd"/><path fill="#000000" fill-opacity="0.0" d="m181.38672 300.0l0 0c0 -156.0748 53.105377 -282.59842 118.61417 -282.59842l0 0c31.458435 0 61.628418 29.773676 83.872894 82.771164c22.244476 52.99749 34.741302 124.877495 34.741302 199.82727l0 0c0 156.0748 -53.105377 282.59845 -118.6142 282.59845l0 0c-65.50879 0 -118.61417 -126.52365 -118.61417 -282.59845z" fill-rule="evenodd"/><path stroke="#860485" stroke-width="24.0" stroke-linejoin="round" stroke-linecap="butt" d="m181.38672 300.0l0 0c0 -156.0748 53.105377 -282.59842 118.61417 -282.59842l0 0c31.458435 0 61.628418 29.773676 83.872894 82.771164c22.244476 52.99749 34.741302 124.877495 34.741302 199.82727l0 0c0 156.0748 -53.105377 282.59845 -118.6142 282.59845l0 0c-65.50879 0 -118.61417 -126.52365 -118.61417 -282.59845z" fill-rule="evenodd"/><path fill="#000000" fill-opacity="0.0" d="m359.5097 404.37057l0 0c-132.81796 78.27655 -267.13254 95.01477 -300.0 37.385803l0 0c-15.783516 -27.674377 -5.5835 -69.1478 28.356152 -115.29651c33.93966 -46.148712 88.83879 -93.19249 152.62022 -130.78223l0 0c132.81796 -78.27657 267.13254 -95.01478 300.0 -37.38582l0 0c32.867493 57.628952 -48.158417 167.80217 -180.97638 246.07875z" fill-rule="evenodd"/><path stroke="#860485" stroke-width="24.0" stroke-linejoin="round" stroke-linecap="butt" d="m359.5097 404.37057l0 0c-132.81796 78.27655 -267.13254 95.01477 -300.0 37.385803l0 0c-15.783516 -27.674377 -5.5835 -69.1478 28.356152 -115.29651c33.93966 -46.148712 88.83879 -93.19249 152.62022 -130.78223l0 0c132.81796 -78.27657 267.13254 -95.01478 300.0 -37.38582l0 0c32.867493 57.628952 -48.158417 167.80217 -180.97638 246.07875z" fill-rule="evenodd"/><path fill="#3664c8" d="m219.70766 299.99643l0 0c0 -45.078598 35.944122 -81.62204 80.28346 -81.62204l0 0c21.292511 0 41.71292 8.599442 56.768982 23.906555c15.056061 15.307098 23.514496 36.067993 23.514496 57.715485l0 0c0 45.078613 -35.944153 81.62207 -80.28348 81.62207l0 0c-44.33934 0 -80.28346 -36.543457 -80.28346 -81.62207z" fill-rule="evenodd"/><path stroke="#ffffff" stroke-width="24.0" stroke-linejoin="round" stroke-linecap="butt" d="m219.70766 299.99643l0 0c0 -45.078598 35.944122 -81.62204 80.28346 -81.62204l0 0c21.292511 0 41.71292 8.599442 56.768982 23.906555c15.056061 15.307098 23.514496 36.067993 23.514496 57.715485l0 0c0 45.078613 -35.944153 81.62207 -80.28348 81.62207l0 0c-44.33934 0 -80.28346 -36.543457 -80.28346 -81.62207z" fill-rule="evenodd"/></g></svg>