<svg version="1.1" viewBox="0.0 0.0 192.0 192.0" fill="none" stroke="none" stroke-linecap="square" stroke-miterlimit="10" xmlns:xlink="http://www.w3.org/1999/xlink" xmlns="http://www.w3.org/2000/svg"><clipPath id="p.0"><path d="m0 0l192.0 0l0 192.0l-192.0 0l0 -192.0z" clip-rule="nonzero"/></clipPath><g clip-path="url(#p.0)"><path fill="#000000" fill-opacity="0.0" d="m0 0l192.0 0l0 192.0l-192.0 0z" fill-rule="evenodd"/><path fill="#3664c8" d="m15.7155285 95.99907l0 0c0 -45.078613 35.94413 -81.62205 80.28346 -81.62205l0 0c21.292496 0 41.712906 8.599442 56.768982 23.906546c15.056076 15.307102 23.51448 36.06799 23.51448 57.715504l0 0c0 45.078613 -35.944122 81.62204 -80.28346 81.62204l0 0c-44.339333 0 -80.28346 -36.543427 -80.28346 -81.62204z" fill-rule="evenodd"/><path stroke="#ffffff" stroke-width="24.0" stroke-linejoin="round" stroke-linecap="butt" d="m15.7155285 95.99907l0 0c0 -45.078613 35.94413 -81.62205 80.28346 -81.62205l0 0c21.292496 0 41.712906 8.599442 56.768982 23.906546c15.056076 15.307102 23.51448 36.06799 23.51448 57.715504l0 0c0 45.078613 -35.944122 81.62204 -80.28346 81.62204l0 0c-44.339333 0 -80.28346 -36.543427 -80.28346 -81.62204z" fill-rule="evenodd"/></g></svg>