<svg version="1.1" viewBox="0.0 0.0 960.0 465.6010498687664" fill="none" stroke="none" stroke-linecap="square" stroke-miterlimit="10" xmlns:xlink="http://www.w3.org/1999/xlink" xmlns="http://www.w3.org/2000/svg"><clipPath id="p.0"><path d="m0 0l960.0 0l0 465.60104l-960.0 0l0 -465.60104z" clip-rule="nonzero"/></clipPath><g clip-path="url(#p.0)"><path fill="#000000" fill-opacity="0.0" d="m0 0l960.0 0l0 465.60104l-960.0 0z" fill-rule="evenodd"/><path fill="#ffffff" d="m78.38437 16.287703c-9.643982 0 -18.640911 1.3711071 -26.99083 4.113323c-8.319092 2.742218 -15.559795 6.6244564 -21.722069 11.646715c-6.1314926 5.0222588 -10.953468 10.9380455 -14.465973 17.747375c-3.5125046 6.8093224 -5.268758 14.18866 -5.268758 22.138004c0 8.134216 1.2324734 15.467339 3.6973734 21.999352c2.464901 6.532013 6.2547092 12.355377 11.369423 17.47007c5.1147156 5.1147003 11.446468 9.38208 18.995258 12.802147c7.5796127 3.3892517 16.484112 6.131462 26.713524 8.226646c6.439598 1.1400299 12.108894 2.511139 17.007912 4.113327c4.929825 1.6021881 9.243439 3.4508667 12.940811 5.546051c3.6973724 2.0643616 6.732292 4.3289948 9.104782 6.793915c2.37249 2.46492 4.113327 5.2071533 5.222542 8.226654c1.1400146 3.0195312 1.7100296 6.2393036 1.7100296 9.659378c0 5.114685 -1.7100296 9.659378 -5.130104 13.634048c-3.389267 3.9746704 -8.026398 7.1020203 -13.911369 9.38208c-5.854164 2.2492218 -12.370789 3.3738556 -19.549858 3.3738556c-11.739159 0 -21.876133 -2.5419464 -30.410896 -7.625824c-8.50396 -5.1147003 -17.393047 -14.296494 -26.667307 -27.54541l-21.02881 24.125336c5.884971 8.503952 12.555634 15.652191 20.012033 21.444748c7.4871807 5.7617188 15.821661 10.059921 25.003489 12.894577c9.181801 2.8346558 19.164711 4.2519684 29.948723 4.2519684c14.974365 0 27.853539 -2.4957123 38.63755 -7.4871674c10.784012 -5.0222473 19.103111 -12.170502 24.957268 -21.444748c5.8849945 -9.274231 8.827484 -20.258484 8.827484 -32.952805c0 -6.8093414 -1.4789429 -13.141083 -4.436844 -18.99524c-2.9270935 -5.8849792 -7.225296 -11.184555 -12.894592 -15.898697c-5.669304 -4.744957 -12.586464 -8.873688 -20.75151 -12.386185c-8.134224 -3.5125046 -17.393066 -6.393364 -27.77652 -8.642601c-7.394745 -1.5097656 -13.741913 -3.250618 -19.04147 -5.222542c-5.2995605 -2.0027313 -9.520737 -4.282776 -12.663506 -6.8401337c-3.1119385 -2.5573425 -5.422798 -5.484421 -6.932575 -8.78125c-1.5097733 -3.3276367 -2.2646408 -6.9787903 -2.2646408 -10.953461c0 -5.515236 1.5559921 -10.306419 4.6679344 -14.373524c3.1427689 -4.067108 7.456379 -7.225273 12.940807 -9.47451c5.4844284 -2.2800407 11.9240265 -3.4200706 19.318779 -3.4200706c6.4087677 0 12.447807 1.093811 18.117126 3.2814178c5.7001266 2.1568031 10.907249 5.3765984 15.621399 9.659378c4.744957 4.251976 9.012352 9.489914 12.802162 15.713821l21.583412 -21.306091c-4.344406 -7.548794 -9.828842 -13.926758 -16.453308 -19.133892c-6.6244736 -5.2071266 -14.204086 -9.135582 -22.738846 -11.785366c-8.50396 -2.649784 -17.870636 -3.9746723 -28.100037 -3.9746723z" fill-rule="evenodd"/><path fill="#ffffff" d="m201.91612 30.753662l0 38.036697l-30.9655 0l0 28.42353l30.9655 0l0 120.672905l29.255478 0l0 -120.672905l34.61667 0l0 -28.42353l-34.61667 0l0 -38.036697z" fill-rule="evenodd"/><path fill="#ffffff" d="m358.0643 92.36109c6.4396057 0 12.401611 1.4327316 17.886047 4.2981873c5.515259 2.8346481 10.059937 6.7168884 13.634064 11.646721c3.60495 4.8990097 5.7001038 10.4758835 6.2855225 16.730598l0 1.9873352l-83.44382 0c0.8985596 -4.3174896 2.1999207 -8.245941 3.9040833 -11.78537c3.60495 -7.487175 8.9045105 -13.171875 15.898712 -17.054115c7.024994 -3.8822403 15.63681 -5.8233566 25.835388 -5.8233566zm0 -26.944588c-10.968872 0 -21.136658 1.941124 -30.503326 5.8233566c-9.366669 3.8822403 -17.408478 9.366676 -24.125366 16.4533c-6.7168884 7.086624 -11.970245 15.467323 -15.76004 25.142113c-3.7898254 9.643982 -5.684723 20.335533 -5.684723 32.074684c0 14.758682 3.3584595 27.822708 10.075348 39.192123c6.7168884 11.369415 15.99115 20.32013 27.822723 26.852158c11.831604 6.50119 25.419464 9.751801 40.76355 9.751801c6.9942017 0 14.127045 -0.9859619 21.39856 -2.9578857c7.302307 -2.0027618 14.219482 -4.698761 20.751495 -8.087997c6.532013 -3.4200745 12.062683 -7.394745 16.59195 -11.9240265l-14.743256 -20.75148c-7.394745 6.4395905 -14.265717 10.891846 -20.612854 13.3567505c-6.316345 2.46492 -13.1719055 3.6973572 -20.56665 3.6973572c-10.414276 0 -19.59607 -2.0797577 -27.54544 -6.2393036c-7.949341 -4.159546 -14.111633 -10.075333 -18.486847 -17.747375c-3.281952 -5.795761 -5.3242493 -12.374008 -6.1268616 -19.73471l114.043945 0l0.32351685 -12.524841c0.18487549 -10.414261 -1.3865051 -20.012016 -4.714142 -28.793274c-3.2968445 -8.812065 -8.026398 -16.43789 -14.18869 -22.877472c-6.1622925 -6.439583 -13.402985 -11.492653 -21.722076 -15.159218c-8.319061 -3.6973724 -17.31601 -5.5460587 -26.990814 -5.5460587z" fill-rule="evenodd"/><path fill="#ffffff" d="m458.04974 7.7375345l0 210.14926l29.209229 0l0 -210.14926z" fill-rule="evenodd"/><path fill="#ffffff" d="m529.32324 7.7375345l0 210.14926l29.209229 0l0 -210.14926z" fill-rule="evenodd"/><path fill="#ffffff" d="m662.1839 92.63839c8.90448 0 16.761414 2.1876068 23.57074 6.5628357c6.809326 4.344406 12.15509 10.306419 16.037354 17.886024c3.8822632 7.5796127 5.8233643 16.191391 5.8233643 25.835373c0 9.828842 -1.9411011 18.579285 -5.8233643 26.251328c-3.8822632 7.672043 -9.228027 13.695679 -16.037354 18.070892c-6.809326 4.3444214 -14.66626 6.516617 -23.57074 6.516617c-8.688843 0 -16.407104 -2.1721954 -23.154846 -6.516617c-6.716858 -4.3752136 -12.016418 -10.3988495 -15.898682 -18.070892c-3.8514404 -7.672043 -5.7771606 -16.422485 -5.7771606 -26.251328c0 -9.643982 1.9257202 -18.25576 5.7771606 -25.835373c3.8822632 -7.579605 9.181824 -13.541618 15.898682 -17.886024c6.7477417 -4.375229 14.466003 -6.5628357 23.154846 -6.5628357zm-5.0839233 -26.94458c-13.064026 0 -24.849426 3.312233 -35.35614 9.936684c-10.506714 6.6244507 -18.841187 15.76004 -25.003479 27.406754c-6.1622925 11.646713 -9.243408 24.941841 -9.243408 39.885376c0 14.758682 3.034912 28.007584 9.104736 39.746735c6.0698853 11.739151 14.157898 21.013367 24.264038 27.822708c10.136963 6.809326 21.352356 10.213974 33.64612 10.213974c7.209839 0 14.080811 -1.1246185 20.612854 -3.3738403c6.5320435 -2.2800598 12.494019 -5.314972 17.886047 -9.104782c5.391968 -3.789795 9.828796 -8.087997 13.310547 -12.894577c0.061950684 -0.085372925 0.12359619 -0.17077637 0.18487549 -0.25624084l0 0l0 22.810196l29.532715 0l0 -149.09644l-29.532715 0l0 22.740326l0 0c-3.001892 -4.857132 -6.7454834 -9.171234 -11.230774 -12.942299c-4.8374023 -4.067108 -10.475891 -7.225273 -16.915527 -9.47451c-6.4087524 -2.2800446 -13.495422 -3.4200668 -21.259888 -3.4200668z" fill-rule="evenodd"/><path fill="#ffffff" d="m851.866 65.69381c-6.9942017 0 -13.757263 1.7100296 -20.289307 5.1300964c-6.5320435 3.3892593 -12.309204 8.026367 -17.331482 13.911362c-3.2063599 3.737503 -5.8098755 7.7450104 -7.810669 12.022522l0 0l0 -27.96743l-29.532776 0l0 149.09644l29.532776 0l0 -82.35892c0 -5.484436 1.0476074 -10.537498 3.1427612 -15.15921c2.0951538 -4.652527 4.883606 -8.719635 8.365295 -12.201324c3.5125122 -3.512497 7.57959 -6.2547073 12.201355 -8.226646c4.652527 -2.002739 9.536133 -3.0041122 14.650818 -3.0041122c2.6497803 0 5.345764 0.3389206 8.088013 1.016777c2.7421875 0.6470413 5.253296 1.4327316 7.533386 2.357071l7.672058 -31.797379c-1.7254028 -0.73947144 -4.051697 -1.3865128 -6.978821 -1.9411163c-2.927063 -0.58542633 -6.0081787 -0.87812805 -9.243408 -0.87812805z" fill-rule="evenodd"/><path fill="#ffffff" d="m156.11292 256.26443l0 198.77985l30.688187 0l0 -84.34625l99.089615 0l0 84.34625l30.641968 0l0 -198.77985l-30.641968 0l0 84.90085l-99.089615 0l0 -84.90085z" fill-rule="evenodd"/><path fill="#ffffff" d="m429.83786 329.79587c8.904541 0 16.761444 2.187622 23.57077 6.5628357c6.809326 4.3444214 12.155121 10.306427 16.037354 17.886017c3.8822327 7.5796204 5.8233643 16.191406 5.8233643 25.835388c0 9.828827 -1.9411316 18.579285 -5.8233643 26.251312c-3.8822327 7.672058 -9.228027 13.695679 -16.037354 18.070892c-6.809326 4.3444214 -14.666229 6.516632 -23.57077 6.516632c-8.688812 0 -16.407074 -2.1722107 -23.154785 -6.516632c-6.7168884 -4.3752136 -12.0164795 -10.398834 -15.898712 -18.070892c-3.85141 -7.6720276 -5.77713 -16.422485 -5.77713 -26.251312c0 -9.643982 1.9257202 -18.255768 5.77713 -25.835388c3.8822327 -7.57959 9.181824 -13.541595 15.898712 -17.886017c6.747711 -4.3752136 14.465973 -6.5628357 23.154785 -6.5628357zm-5.0838623 -26.94458c-13.064056 0 -24.849457 3.3122253 -35.35614 9.936676c-10.506714 6.6244507 -18.841187 15.76004 -25.003479 27.406769c-6.162323 11.646698 -9.243439 24.941833 -9.243439 39.885376c0 14.758667 3.034912 28.007568 9.104767 39.746735c6.0698547 11.739136 14.157867 21.013367 24.264008 27.822693c10.136963 6.809326 21.352356 10.213989 33.64612 10.213989c7.2098694 0 14.080841 -1.1246338 20.612854 -3.3738403c6.532013 -2.2800598 12.494019 -5.314972 17.886047 -9.104797c5.3919983 -3.789795 9.828827 -8.087982 13.310547 -12.894562c0.0619812 -0.085357666 0.12359619 -0.17077637 0.18484497 -0.2562561l0 0l0 22.810211l29.532776 0l0 -149.09644l-29.532776 0l0 22.740326l0 0c-3.001892 -4.857147 -6.7454834 -9.171234 -11.230774 -12.942291c-4.837372 -4.067108 -10.475861 -7.225281 -16.915466 -9.474518c-6.408783 -2.2800598 -13.495422 -3.4200745 -21.259888 -3.4200745z" fill-rule="evenodd"/><path fill="#ffffff" d="m607.87335 302.8513c-13.803528 0 -26.158936 3.404663 -37.066162 10.213989c-10.876465 6.809326 -19.48822 16.083557 -25.835388 27.822693c-6.316345 11.739166 -9.474548 24.89563 -9.474548 39.46945c0 14.5737915 3.1582031 27.730255 9.474548 39.46942c6.347168 11.739136 14.958923 21.013367 25.835388 27.822693c10.907227 6.809326 23.262634 10.213989 37.066162 10.213989c12.139709 0 23.832642 -2.742218 35.078857 -8.226654c11.276978 -5.4844055 19.934998 -12.478607 25.973999 -20.982574l-16.175964 -19.873352c-3.9746704 4.8990173 -8.242065 9.058563 -12.802185 12.478607c-4.529297 3.3892822 -9.212585 5.9466248 -14.049988 7.672058c-4.8065796 1.6946106 -9.767273 2.5419312 -14.881958 2.5419312c-8.7196045 0 -16.684387 -2.2646484 -23.894287 -6.793915c-7.179016 -4.560089 -12.940796 -10.676147 -17.285217 -18.348206c-4.3444214 -7.6720276 -6.5166016 -16.330048 -6.5166016 -25.973999c0 -9.643982 2.079773 -18.348206 6.239319 -26.112701c4.159546 -7.7644653 9.782654 -13.865112 16.869263 -18.301971c7.1174316 -4.4676514 15.220825 -6.701477 24.310242 -6.701477c4.9298096 0 10.044495 1.0475769 15.344116 3.1427612c5.2995605 2.0643616 10.3063965 4.8990173 15.020569 8.503937c4.744934 3.60495 8.627197 7.5796204 11.6467285 11.924042l16.175964 -19.873383c-5.6693115 -9.274231 -13.942139 -16.60736 -24.818604 -21.999329c-10.876404 -5.392029 -22.954529 -8.088013 -36.234253 -8.088013z" fill-rule="evenodd"/><path fill="#ffffff" d="m696.47345 244.89502l0 210.14926l29.255432 0l0 -48.970825l0 0l16.245544 -15.235748l55.021362 64.20657l37.482117 0l-71.973694 -83.460236l69.98633 -65.6362l-39.469482 0l-67.292175 66.76846l0 -127.82129z" fill-rule="evenodd"/><path fill="#ffffff" d="m904.3615 302.8513c-7.3947754 0 -14.358154 1.0476074 -20.890198 3.1427612c-6.5320435 2.0643616 -12.216736 5.0376587 -17.054138 8.919922c-4.8065796 3.8822327 -8.580933 8.42691 -11.323181 13.634033c-2.7422485 5.2071533 -4.1133423 10.938049 -4.1133423 17.19278c0 5.083893 0.6624756 9.767212 1.9873657 14.050018c1.3248901 4.251953 3.404663 8.18042 6.239319 11.785339c3.789795 4.529297 9.181763 8.596405 16.175964 12.201324c6.9942627 3.60495 15.99115 6.8247375 26.990845 9.659393c6.439636 1.6946106 11.692932 3.3430176 15.760071 4.945221c4.0670776 1.6022034 7.0404053 3.0811462 8.919922 4.436859c3.6049194 3.0195312 5.4074097 6.9942017 5.4074097 11.924011c0 2.8346558 -0.5700073 5.4382324 -1.710022 7.8106995c-1.1400757 2.3416443 -2.803894 4.3752136 -4.991455 6.100647c-2.1567993 1.6946411 -4.7141724 2.973297 -7.672058 3.836029c-2.927124 0.8319092 -6.085266 1.2478638 -9.474548 1.2478638c-8.534729 0 -16.160583 -1.4635315 -22.877502 -4.390625c-6.716919 -2.9270935 -12.909973 -7.702881 -18.579285 -14.327301l-19.873413 17.007904c6.6245117 8.534729 14.9436035 14.974335 24.957275 19.318756c10.044556 4.344391 21.321533 6.5166016 33.830994 6.5166016c10.013733 0 19.087708 -1.8794861 27.221924 -5.638489c8.165039 -3.789795 14.650818 -9.043152 19.457397 -15.76004c4.8374023 -6.747711 7.2561035 -14.373535 7.2561035 -22.877472c0 -5.8541565 -0.7548828 -11.153717 -2.2646484 -15.898682c-1.5097656 -4.7449646 -4.159546 -8.9045105 -7.949341 -12.478638c-3.6049194 -3.789795 -8.488586 -7.1482544 -14.650818 -10.075348c-6.131531 -2.9578857 -13.9422 -5.669281 -23.432129 -8.134186c-6.4087524 -1.5097656 -11.708313 -3.111969 -15.898682 -4.8065796c-4.159546 -1.6946411 -7.2715454 -3.3122559 -9.335876 -4.8528137c-1.9103394 -1.5097656 -3.3892822 -3.343048 -4.4368896 -5.4998474c-1.0167236 -2.1875916 -1.6329956 -4.513855 -1.8486328 -6.9787903c0 -2.8346252 0.5700073 -5.376587 1.710022 -7.625824c1.1400146 -2.2800293 2.803833 -4.1749268 4.991455 -5.6846924c2.187622 -1.5405579 4.883606 -2.680603 8.088013 -3.4200745c3.2043457 -0.7702942 6.7938843 -1.155426 10.768555 -1.155426c3.6049805 0 7.579651 0.7548828 11.924072 2.2646484c4.375183 1.5097656 8.688782 3.6511536 12.940796 6.424164c4.251953 2.742218 8.18042 5.9003906 11.785339 9.474518l16.730652 -18.440643c-3.9746704 -4.9298096 -8.889099 -9.181793 -14.743286 -12.75592c-5.854187 -3.6049194 -12.247559 -6.3471375 -19.180115 -8.226654c-6.9017944 -1.9102783 -13.8497925 -2.865448 -20.843933 -2.865448z" fill-rule="evenodd"/></g></svg>